<?xml version="1.0" encoding="utf-8"?>
<!-- Generator: Adobe Illustrator 27.5.0, SVG Export Plug-In . SVG Version: 6.00 Build 0)  -->
<svg version="1.1" id="Layer_1" xmlns="http://www.w3.org/2000/svg" xmlns:xlink="http://www.w3.org/1999/xlink" x="0px" y="0px"
	 viewBox="0 0 300 300" style="enable-background:new 0 0 300 300;" xml:space="preserve">
<style type="text/css">
	.st0{fill:#FFFFFF;}
	.st1{fill-rule:evenodd;clip-rule:evenodd;fill:#FFFFFF;}
</style>
<g>
	<defs>
		<path id="SVGID_1_" d="M216.5,99.7c-1.5-4-3.4-6.8-6.4-9.8c-3-3-5.8-4.8-9.8-6.4c-3-1.2-7.5-2.6-15.8-2.9
			c-9-0.4-11.7-0.5-34.5-0.5c-22.8,0-25.5,0.1-34.5,0.5c-8.3,0.4-12.8,1.8-15.8,2.9c-4,1.5-6.8,3.4-9.8,6.4c-3,3-4.8,5.8-6.4,9.8
			c-1.2,3-2.6,7.5-2.9,15.8c-0.4,9-0.5,11.7-0.5,34.5s0.1,25.5,0.5,34.5c0.4,8.3,1.8,12.8,2.9,15.8c1.5,4,3.4,6.8,6.4,9.8
			c3,3,5.8,4.8,9.8,6.4c3,1.2,7.5,2.6,15.8,2.9c9,0.4,11.7,0.5,34.5,0.5c22.8,0,25.5-0.1,34.5-0.5c8.3-0.4,12.8-1.8,15.8-2.9
			c4-1.5,6.8-3.4,9.8-6.4c3-3,4.8-5.8,6.4-9.8c1.2-3,2.6-7.5,2.9-15.8c0.4-9,0.5-11.7,0.5-34.5s-0.1-25.5-0.5-34.5
			C219.1,107.2,217.7,102.7,216.5,99.7z M150,193.8c-24.2,0-43.8-19.6-43.8-43.8c0-24.2,19.6-43.8,43.8-43.8
			c24.2,0,43.8,19.6,43.8,43.8C193.8,174.2,174.2,193.8,150,193.8z M195.6,114.7c-5.7,0-10.2-4.6-10.2-10.2
			c0-5.7,4.6-10.2,10.2-10.2c5.7,0,10.2,4.6,10.2,10.2C205.8,110.1,201.2,114.7,195.6,114.7z M150,121.5
			c-15.7,0-28.4,12.7-28.4,28.5s12.7,28.5,28.4,28.5c15.7,0,28.5-12.7,28.5-28.5S165.7,121.5,150,121.5z M234.8,185.2
			c-0.4,9.1-1.9,15.3-4,20.7c-2.2,5.6-5.1,10.4-9.8,15.1c-4.7,4.7-9.5,7.7-15.1,9.8c-5.4,2.1-11.6,3.6-20.7,4
			c-9.1,0.4-12,0.5-35.2,0.5c-23.2,0-26.1-0.1-35.2-0.5c-9.1-0.4-15.3-1.9-20.7-4c-5.6-2.2-10.4-5.1-15.1-9.8
			c-4.7-4.7-7.7-9.5-9.8-15.1c-2.1-5.4-3.6-11.6-4-20.7c-0.4-9.1-0.5-12-0.5-35.2c0-23.2,0.1-26.1,0.5-35.2c0.4-9.1,1.9-15.3,4-20.7
			c2.2-5.6,5.1-10.4,9.8-15.1c4.7-4.7,9.5-7.7,15.1-9.8c5.4-2.1,11.6-3.6,20.7-4c9.1-0.4,12-0.5,35.2-0.5c23.2,0,26.1,0.1,35.2,0.5
			c9.1,0.4,15.3,1.9,20.7,4c5.6,2.2,10.4,5.1,15.1,9.8c4.7,4.7,7.7,9.5,9.8,15.1c2.1,5.4,3.5,11.6,4,20.7c0.4,9.1,0.5,12,0.5,35.2
			C235.3,173.2,235.3,176.1,234.8,185.2z"/>
	</defs>
	<use xlink:href="#SVGID_1_"  style="overflow:visible;fill:#FFFFFF;"/>
	<clipPath id="SVGID_00000050654949336510373590000000446849186819223954_">
		<use xlink:href="#SVGID_1_"  style="overflow:visible;"/>
	</clipPath>
</g>
</svg>
