<?xml version="1.0" encoding="UTF-8"?>
<svg id="Layer_1" data-name="Layer 1" xmlns="http://www.w3.org/2000/svg" viewBox="0 0 200 200">
  <defs>
    <style>
      .cls-1 {
        fill: #256aa1;
      }
    </style>
  </defs>
  <path class="cls-1" d="m100,151.18c-4.89,0-9.78-3.58-18.7-10.76l-4.25-3.41c-8.84-7.04-16.28-14-22.1-20.7-7.35-8.46-12.28-16.66-14.66-24.39-4.71-15.36,1.22-30.97,14.78-38.82,4.8-2.78,10.32-4.26,15.97-4.29h.18c5.57,0,11.3,1.41,16.56,4.07,4.47,2.26,8.56,5.35,12.2,9.21,3.64-3.87,7.73-6.96,12.2-9.21,5.32-2.7,11.05-4.01,16.74-4.07,5.65.03,11.17,1.51,15.96,4.29,13.56,7.85,19.5,23.45,14.8,38.82-2.37,7.72-7.3,15.92-14.66,24.39-5.83,6.71-13.27,13.68-22.1,20.7l-4.24,3.4c-8.92,7.18-13.81,10.76-18.71,10.76Zm-28.77-95.55h-.14c-4.47.02-8.83,1.19-12.6,3.37-10.76,6.23-15.45,18.66-11.69,30.93,2.09,6.81,6.56,14.19,13.28,21.92,5.56,6.39,12.69,13.06,21.21,19.85l4.28,3.43q14.41,11.61,28.86,0l4.27-3.42h0c8.51-6.77,15.64-13.45,21.2-19.85,6.73-7.74,11.2-15.12,13.28-21.92,3.76-12.27-.93-24.7-11.69-30.93-3.77-2.18-8.12-3.35-12.59-3.37-4.84.14-9.27,1.13-13.63,3.34-4.72,2.38-8.97,5.9-12.62,10.45-1.29,1.61-4.02,1.61-5.3,0-3.66-4.55-7.9-8.07-12.62-10.45-4.32-2.19-8.99-3.34-13.49-3.34Z"/>
</svg>