<?xml version="1.0" encoding="UTF-8"?>
<svg id="Layer_1" data-name="Layer 1" xmlns="http://www.w3.org/2000/svg" viewBox="0 0 200 200">
  <defs>
    <style>
      .cls-1 {
        fill: #256aa1;
      }
    </style>
  </defs>
  <path class="cls-1" d="m89.58,96.45c-.69,0-1.38-.21-1.97-.62l-54.37-38.5c-1.21-.86-1.73-2.4-1.28-3.81.45-1.42,1.76-2.37,3.24-2.37h129.59c1.58,0,2.94,1.08,3.31,2.61.37,1.53-.36,3.11-1.76,3.83l-75.21,38.5c-.49.25-1.02.37-1.55.37Zm-43.68-38.5l43.96,31.13,60.81-31.13H45.9Z"/>
  <path class="cls-1" d="m89.12,163.08c-.35,0-.71-.05-1.06-.17-1.41-.46-2.36-1.78-2.35-3.26l.46-66.63c0-1.26.72-2.42,1.85-3l75.15-38.62c1.38-.73,3.1-.4,4.13.8,1.02,1.19,1.1,2.93.19,4.21l-75.62,105.25c-.65.9-1.69,1.42-2.76,1.42Zm3.86-67.94l-.38,53.86,61.14-85.09-60.76,31.23Z"/>
</svg>