<?xml version="1.0" encoding="utf-8"?>
<!-- Generator: Adobe Illustrator 27.5.0, SVG Export Plug-In . SVG Version: 6.00 Build 0)  -->
<svg version="1.1" id="Layer_1" xmlns="http://www.w3.org/2000/svg" xmlns:xlink="http://www.w3.org/1999/xlink" x="0px" y="0px"
	 viewBox="0 0 300 300" style="enable-background:new 0 0 300 300;" xml:space="preserve">
<style type="text/css">
	.st0{fill:#FFFFFF;}
	.st1{fill-rule:evenodd;clip-rule:evenodd;fill:#FFFFFF;}
</style>
<g>
	<g id="Logo_14_">
		<path id="white_background_13_" class="st0" d="M219.3,114.4c0.1,1.5,0.1,3.1,0.1,4.6c0,47.3-36,101.8-101.8,101.8v0
			c-19.4,0-38.5-5.5-54.8-16c2.8,0.3,5.7,0.5,8.5,0.5c16.1,0,31.7-5.4,44.4-15.3c-15.3-0.3-28.7-10.3-33.4-24.8
			c5.4,1,10.9,0.8,16.1-0.6c-16.7-3.4-28.7-18-28.7-35.1c0-0.2,0-0.3,0-0.5c5,2.8,10.5,4.3,16.2,4.5C70.3,123,65.5,102,75,85.7
			c18.2,22.3,44.9,35.9,73.7,37.4c-2.9-12.4,1.1-25.4,10.3-34.2c14.4-13.5,37.1-12.8,50.6,1.6c8-1.6,15.7-4.5,22.7-8.7
			c-2.7,8.3-8.3,15.3-15.7,19.8c7.1-0.8,14-2.7,20.5-5.6C232.4,103.1,226.3,109.4,219.3,114.4z"/>
	</g>
</g>
</svg>
