<?xml version="1.0" encoding="utf-8"?>
<!-- Generator: Adobe Illustrator 27.5.0, SVG Export Plug-In . SVG Version: 6.00 Build 0)  -->
<svg version="1.1" id="Layer_1" xmlns="http://www.w3.org/2000/svg" xmlns:xlink="http://www.w3.org/1999/xlink" x="0px" y="0px"
	 viewBox="0 0 300 300" style="enable-background:new 0 0 300 300;" xml:space="preserve">
<style type="text/css">
	.st0{fill:#FFFFFF;}
	.st1{fill-rule:evenodd;clip-rule:evenodd;fill:#FFFFFF;}
</style>
<g>
	<path class="st1" d="M202.9,96.7c-14-14.1-32.7-21.8-52.6-21.8c-41,0-74.4,33.4-74.4,74.4c0,13.1,3.4,25.9,9.9,37.2l-10.6,38.6
		l39.4-10.3c10.9,5.9,23.1,9.1,35.6,9.1h0h0c41,0,74.4-33.4,74.4-74.4C224.7,129.5,217,110.8,202.9,96.7 M150.3,211.2L150.3,211.2
		c-11.1,0-22-3-31.5-8.6l-2.3-1.3l-23.4,6.1l6.2-22.8l-1.5-2.3c-6.2-9.8-9.5-21.2-9.5-32.9c0-34.1,27.8-61.8,61.9-61.8
		c16.5,0,32,6.4,43.7,18.1c11.7,11.7,18.1,27.2,18.1,43.8C212.1,183.5,184.4,211.2,150.3,211.2 M184.2,164.9c-1.9-0.9-11-5.4-12.7-6
		c-1.7-0.6-2.9-0.9-4.2,0.9c-1.2,1.9-4.8,6-5.9,7.3c-1.1,1.2-2.2,1.4-4,0.5c-1.9-0.9-7.9-2.9-15-9.2c-5.5-4.9-9.3-11-10.3-12.9
		c-1.1-1.9-0.1-2.9,0.8-3.8c0.8-0.8,1.9-2.2,2.8-3.3c0.9-1.1,1.2-1.9,1.9-3.1c0.6-1.2,0.3-2.3-0.2-3.3c-0.5-0.9-4.2-10.1-5.7-13.8
		c-1.5-3.6-3-3.1-4.2-3.2c-1.1-0.1-2.3-0.1-3.6-0.1c-1.2,0-3.3,0.5-5,2.3c-1.7,1.9-6.5,6.4-6.5,15.5c0,9.1,6.7,18,7.6,19.2
		c0.9,1.2,13.1,20,31.8,28.1c4.4,1.9,7.9,3.1,10.6,3.9c4.5,1.4,8.5,1.2,11.7,0.7c3.6-0.5,11-4.5,12.6-8.8c1.5-4.3,1.5-8.1,1.1-8.8
		C187.3,166.3,186.1,165.8,184.2,164.9"/>
</g>
</svg>
