<?xml version="1.0" encoding="utf-8"?>
<!-- Generator: Adobe Illustrator 27.4.1, SVG Export Plug-In . SVG Version: 6.00 Build 0)  -->
<svg version="1.1" xmlns="http://www.w3.org/2000/svg" xmlns:xlink="http://www.w3.org/1999/xlink" x="0px" y="0px"
	 viewBox="0 0 1420.2 474.4" style="enable-background:new 0 0 1420.2 474.4;" xml:space="preserve">
<style type="text/css">
	.st0{display:none;}
	.st1{display:inline;}
	.st2{fill:#FFFFFF;}
	.st3{fill:#276AA1;}
	.st4{fill:#4992CF;}
	.st5{fill:#3FBC9E;}
</style>
<g id="Layer_1">
</g>
<g id="Logo_Icon">
</g>
<g id="White_1_" class="st0">
	<g class="st1">
		<g>
			<g>
				<path class="st2" d="M-743.7-69.7L-743.7-69.7c-5.4-0.2-10.5,1.6-14.4,5.5L-950,133.5c-8.5,8.8-7.6,24.6,2,35.3
					c0,0,4,5.4,14,15.5c10,10.2,16.3,6.8,25.9,0c9.7-6.8,150.5-105.7,150.5-105.7c11.4-7.5,17.3-7.3,28.8,0
					c0,0,140.8,98.9,150.4,105.7c9.7,6.8,15.9,10.2,25.9,0c10-10.2,14-15.5,14-15.5c9.6-10.7,10.5-26.6,2-35.3L-728.2-64.1
					c-3.9-4-9-5.7-14.4-5.5l0,0c-0.2-0.1-0.3,0-0.5,0C-743.3-69.7-743.5-69.7-743.7-69.7z"/>
				<path id="XMLID_7_" class="st2" d="M-754.1,140.3l-159.6,111.5c-7.1,7.3-6.4,20.5,1.7,29.4c0,0,3.4,4.5,11.6,12.9
					c1.8,1.7,7.7,6.5,16.4,4.5c32.7-11.1,103.3-42.7,125.7-51.7c6.7-2.2,10.6-3.7,15.1-3.7c4.5,0,8.4,1.5,15.1,3.7
					c22.4,9,93.1,40.6,125.7,51.7c8.6,2.1,14.6-2.7,16.3-4.5c8.3-8.5,11.6-12.9,11.6-12.9c8-8.9,8.8-22,1.7-29.4l-159.5-111.5
					C-740.5,134.8-745.6,134.6-754.1,140.3z"/>
			</g>
		</g>
		<g>
			<g>
				<g>
					<g>
						<path class="st2" d="M-1330.5,550.7h-35.6c-13.4,0-23.1-2.6-29.1-7.8c-6-5.2-9-13.7-9-25.4v-86.2h23.3v86.2
							c0,4.7,1.1,7.9,3.2,9.7c2.1,1.8,6,2.7,11.6,2.7h35.6V550.7z"/>
						<path class="st2" d="M-1233.2,550.7h-42.3c-13.4,0-22.8-2.3-28.3-7c-5.4-4.6-8.1-12.8-8.1-24.6v-87.9h78.7v20.8h-55.3v28h38.7
							l-1.7,20.8h-37.1v16.6c0,4.7,1.1,7.9,3.2,9.7c2.1,1.8,6,2.7,11.6,2.7h40.6V550.7z"/>
						<path class="st2" d="M-1119.8,550.7h-24.3l-6.7-20.6h-40.1l-6.5,20.6h-24.3l38.2-109.3c1.7-3.8,3.6-6.4,5.6-7.9
							c2.1-1.5,4.6-2.2,7.6-2.2c3,0,5.5,0.7,7.3,2c1.8,1.3,3.5,4,4.9,8L-1119.8,550.7z M-1156.2,510.4l-14.1-47.3l-14.8,47.3
							H-1156.2z"/>
						<path class="st2" d="M-1010.3,431.3v107.3c0,3.7-1.1,6.8-3.4,9.5c-2.2,2.6-4.9,3.9-7.9,3.9c-7.7,0-14-4.5-19-13.4l-41.3-64.6
							v76.6h-23.3V431.3h22.5l49,78.2v-78.2H-1010.3z"/>
					</g>
				</g>
			</g>
			<g>
				<path class="st2" d="M-894.9,480.1l-21.2,44.6c-3.1,6-6.9,8.9-11.5,8.9c-4.6,0-8.4-3.1-11.5-9.4l-21.5-44.2v70.3h-23V432.6h22.7
					l33.2,68l33.1-68h22.7v117.7h-23V480.1z"/>
				<path class="st2" d="M-758.5,550.4h-24l-6.6-20.3h-39.5l-6.4,20.3h-24l37.7-107.8c1.7-3.7,3.5-6.3,5.5-7.8
					c2-1.4,4.5-2.2,7.5-2.2s5.4,0.7,7.2,2s3.4,4,4.9,7.9L-758.5,550.4z M-794.4,510.7l-13.9-46.6l-14.6,46.6H-794.4z"/>
				<path class="st2" d="M-653.2,550.4h-26.6l-23-43.7h-16.5v43.7h-23v-92.4c0-8.8,2-15.2,6.1-19.3c4.1-4,10.9-6,20.5-6h19.5
					c11.7,0,21,3.6,27.9,10.7c6.9,7.1,10.3,16.1,10.3,27c0,7.9-2.1,14.8-6.2,20.6c-4.1,5.8-9.2,9.8-15.3,12L-653.2,550.4z
					 M-685.6,482.5c3.1-3.4,4.7-7.5,4.7-12.6c0-5-1.5-9.1-4.5-12.2c-3-3.1-7.1-4.6-12.2-4.6H-709c-6.8,0-10.3,3.5-10.3,10.4v24h21.7
					C-692.8,487.5-688.8,485.8-685.6,482.5z"/>
				<path class="st2" d="M-581.1,488l40.5,62.3h-26.8l-27.8-44.5l-16,21.5v23h-23V432.6h23v65.8l44.5-65.8h23.1L-581.1,488z"/>
				<path class="st2" d="M-446.6,550.4h-41.7c-13.2,0-22.5-2.3-27.9-6.9c-5.3-4.6-8-12.7-8-24.2v-86.6h77.5v20.5h-54.6v27.6h38.2
					l-1.7,20.5h-36.5v16.4c0,4.6,1,7.8,3.1,9.6c2.1,1.8,5.9,2.6,11.4,2.6h40V550.4z"/>
				<path class="st2" d="M-347.6,453.1h-31.6v97.2h-23v-97.2h-31.4v-20.5h86V453.1z"/>
				<path class="st2" d="M-306.8,550.4h-23V432.6h23V550.4z"/>
				<path class="st2" d="M-187.5,432.6v105.8c0,3.6-1.1,6.8-3.3,9.3c-2.2,2.6-4.8,3.9-7.8,3.9c-7.6,0-13.8-4.4-18.7-13.2l-40.7-63.7
					v75.6h-23V432.6h22.2l48.3,77.1v-77.1H-187.5z"/>
				<path class="st2" d="M-171,495v-14.6c0-15.3,4-27.3,12.1-35.9c8-8.6,19.2-12.9,33.4-12.9s25.6,4.3,34.2,12.9
					c6.1,6.1,9.1,15.2,9.1,27.3h-21.5c0-13.1-7-19.7-21-19.7c-4.2,0-7.7,0.8-10.7,2.4c-2.9,1.6-5.1,3.4-6.5,5.5
					c-1.4,2.1-2.5,5.2-3.3,9.3c-0.8,4.1-1.2,7.5-1.3,10.3c-0.1,2.8-0.2,6.4-0.2,11.1s0,7.7,0.1,9.3c0.1,1.6,0.2,4.2,0.5,7.8
					c0.3,3.6,0.7,6.1,1.3,7.7c0.6,1.5,1.5,3.5,2.6,6c1.2,2.4,2.6,4.1,4.4,5.1c4.5,2.9,9.6,4.3,15.4,4.3c9.6,0,16.4-4.1,20.3-12.2
					v-7.9h-14.2v-19.2h33.9V527c-3.4,8-8.8,14.1-16.2,18.2c-7.4,4.1-15.8,6.1-25.1,6.1c-16.6,0-28.7-4.7-36.1-14
					C-167.3,528.1-171,513.9-171,495z"/>
			</g>
		</g>
	</g>
</g>
<g id="Logo_Color_1_">
	<g id="H8R65A_00000088823073846499007060000012142287563655839113_">
		<g>
			<path class="st3" d="M342.2,189.1c-17.6,4-30.7,13.2-38.5,29c-5.4,11-6.6,22.6-3.7,34.6c5.5,23.1,27.4,40.2,51,39.7
				c24.6-0.5,45.6-18.1,50.2-42.3c5.2-27.2-8.4-47.3-43.3-63.1c1.8-0.9,3.7-1.5,5.3-2.6c21.5-15.7,44.8-19.1,68.8-7.6
				c24.2,11.5,37.2,31.4,37.7,58.6c0.6,29.1-11.7,53.2-30.4,74.4c-19.6,22.2-43.7,38.7-68.9,53.8c-6.9,4.1-13.9,10.8-21,10.8
				c-6.7,0.1-13.6-6.8-20.2-10.8c-26.5-16.3-52-34-71.9-58.5C240,283.9,229.2,260,231,231.9c1.7-27,15.7-46.4,40.4-56.8
				c24.6-10.4,47.6-5.9,68.3,10.8C340.5,186.6,341,187.6,342.2,189.1z"/>
			<path class="st4" d="M228.7,190.5c13.8-53.7,66-91,124.8-90.6c53.9,0.4,106.1,40.2,119.6,92.2c-1.6-1.8-2.6-2.8-3.4-3.9
				c-27.6-36.6-76.3-44.4-113.6-17.8c-4.5,3.2-7,3-11.4-0.2c-35.8-26.6-85.9-19.3-112.9,16.1C230.8,187.7,229.7,189.1,228.7,190.5z"
				/>
			<path class="st3" d="M896.2,359.2c-11.9,13-26.3,15.5-42.2,9.9c-22.1-7.7-34.5-32.5-29.5-58c4.7-23.6,23.6-39.2,46.2-38.3
				c10.1,0.4,18.3,4.7,25.1,12.4c0-9.7,0-18.7,0-27.7c0-6.5-0.3-13,0.3-19.4c0.2-1.7,2.8-4.4,4.6-4.6c5.1-0.6,10.2-0.1,15.4-0.3
				c4.2-0.1,5.4,2,5.4,5.8c-0.1,41.5-0.1,83,0,124.5c0,3.6-1.4,5.4-5.1,5.2c-2.4-0.1-4.9,0-7.4,0
				C898.7,368.8,898.7,368.8,896.2,359.2z M897.3,322.5c0.1-15.4-10-26.2-24.2-26.1c-13.7,0.1-24.2,11.2-24.3,25.7
				c-0.1,14.7,10.9,26.4,24.6,26.4C887.1,348.3,897.3,337.4,897.3,322.5z"/>
			<path class="st3" d="M784.9,311.4c1.4-7.1-1.9-11.3-6.8-14.5c-8.5-5.7-21.4-4.6-29.8,3.1c-3.9,3.7-6.5,3.2-10.2,0.4
				c-3.8-3-7.9-5.7-12.3-8.8c7-9.3,15.6-15.6,26.2-16.9c10.4-1.2,21.5-1.3,31.7,0.6c15.8,3,25.3,14.6,26.1,30.7
				c0.9,19.1,0.6,38.3,1,57.5c0.1,4.1-1.7,5.6-5.6,5.5c-3.8-0.2-7.6-0.2-11.4,0c-5.7,0.4-10.2-0.5-7.6-10.2c-3.4,2.7-5,3.9-6.5,5.2
				c-12.7,10.4-32.4,10.4-45.1-0.2c-10.4-8.7-13.3-20-9.9-32.6c3.8-14,14.8-20.6,28.2-22.1c8.5-0.9,17.3,0.6,25.9,1.2
				C780.8,310.3,782.7,310.9,784.9,311.4z M764.3,351.7c9.6-0.1,18-6.4,20.7-15.1c1.1-3.7,0.5-6.5-3.5-7.1
				c-6.5-1.1-13.2-2.5-19.7-2.1c-8.3,0.5-13.7,6.9-13,13.4C749.6,347.3,755.9,351.8,764.3,351.7z"/>
			<path class="st3" d="M1071.3,311.5c1-7-2-11.4-6.9-14.6c-8.5-5.7-21.6-4.6-29.8,3c-3.8,3.6-6.4,3.5-10.2,0.5
				c-3.8-3-7.9-5.6-12.5-8.7c6.4-8.7,14.3-15,24.1-16.4c10.8-1.5,22.3-2.1,33-0.2c16.8,2.9,26.8,15.5,27.3,32.6
				c0.6,18.7,0.3,37.5,0,56.2c0,1.7-2.3,4.6-3.6,4.7c-6.6,0.5-13.3,0.2-20,0.2c-0.6-3.4-1-5.9-1.6-9.2c-3.1,2.5-5.5,4.8-8.2,6.6
				c-12,8.1-24.6,7.3-36.8,1.1c-11.4-5.7-16.8-15.7-16.5-28.4c0.3-15.6,12.4-28.2,29.7-29.8c8.5-0.8,17.3,0.7,25.9,1.3
				C1067.2,310.4,1069,311,1071.3,311.5z M1050.2,351.7c9.6,0,18-6,20.8-14.8c1.2-3.8,1-6.9-3.5-7.5c-6.5-1-13.1-2.4-19.5-2
				c-8.3,0.5-13.5,6.8-12.9,13.3C1035.6,347.1,1041.9,351.7,1050.2,351.7z"/>
			<path class="st4" d="M687.8,200.2c1.5,9.8,6.2,16,14.5,19.2c13.8,5.4,24.8,0.9,33.6-11.2c6.5,3.2,12.9,6.3,19.9,9.8
				c-4.5,7.9-10,13.7-17.1,18.2c-28.2,17.8-66.4,2.3-74-30.1c-8.8-37.7,23.5-69.2,60.9-59.4c20.2,5.3,35,28.1,31.7,48.5
				c-0.7,4.6-3.8,4.2-6.9,4.2c-18.1,0-36.1,0-54.2,0C693.7,199.7,691.1,200,687.8,200.2z M733,181.9c-2-10.8-10.5-17-21.7-16.9
				c-11,0.2-19.7,6.9-21.2,16.9C704.3,181.9,718.4,181.9,733,181.9z"/>
			<path class="st3" d="M621.4,275.5c7.2,0,13.9,0,20.5,0c4.3,0,4.2,3,4.2,6c0,15.4,0,30.8,0,46.2c0,13,4,18.8,13.6,20.3
				c10.2,1.6,19.7-4.5,22.3-15.7c1.6-7.1,1.5-14.6,1.7-21.9c0.3-9.8,0.2-19.6,0-29.4c-0.1-4,1.4-5.4,5.4-5.6
				c19.9-1.1,19.9-1.2,19.9,18.6c0,22.5-0.1,45.1,0.1,67.6c0.1,5.4-1.5,8-7.2,7.3c-1.8-0.2-3.6,0-5.3,0c-10.7,0-10.7,0-11.9-10.8
				c-1,0.7-2,1.1-2.6,1.7c-10.8,12.1-24.3,14.3-39.1,10.2c-14.1-4-20.8-15.1-21.5-28.5C620.6,319.9,621.4,298.2,621.4,275.5z"/>
			<path class="st4" d="M797.3,159.7c1.8-1.7,2.9-2.6,3.9-3.7c10.7-11.5,24.1-13.2,38.2-8.9c13.9,4.2,20.3,15.4,21,29
				c0.9,19.6,0.5,39.3,0.3,58.9c0,1.7-2.7,4.6-4.5,4.8c-18.9,2.5-19.4,2-19.4-16.8c0-11.8,0.1-23.7,0-35.5
				c-0.2-11.7-4.5-17.9-13.4-19.5c-9.8-1.8-19.1,3.3-22.7,13.4c-1.7,4.7-2.5,10-2.7,15c-0.4,12.3-0.3,24.6,0,36.8
				c0.1,5.3-1.9,6.9-7,6.9c-17.4,0.1-17.4,0.3-17.4-17.1c0-22.5,0.1-45.1-0.1-67.6c-0.1-5.4,1.3-8.1,7.1-7.3c1.3,0.2,2.7,0,4,0
				C795.3,148.1,795.3,148.1,797.3,159.7z"/>
			<path class="st3" d="M1189.3,295c-6.3,2.6-11.9,5.2-17.8,7.1c-1.6,0.5-4.6-0.7-5.9-2.1c-6.2-6.2-13.5-7.8-21.5-5.5
				c-2.6,0.7-5.9,3.6-6.2,5.9c-0.3,1.9,3,5.3,5.4,6.3c5.3,2.2,11.1,3.2,16.6,4.9c5.3,1.6,10.9,2.9,15.8,5.3
				c18.4,9.1,21.3,30.3,6.4,44.4c-19.4,18.3-57.9,12.4-70.7-10.9c-0.8-1.5-1.4-3.2-2.3-5.5c6.6-2.8,12.8-5.8,19.3-8.1
				c1.3-0.5,4.3,1.4,5.4,3c5.7,8,13.6,11.1,22.8,9c3.5-0.8,6.3-4.6,9.5-7c-2.5-2.7-4.6-6.7-7.7-8c-5.9-2.4-12.6-3-18.7-5.1
				c-6-2.1-12.4-4.3-17.5-7.9c-11.2-8-12.8-23.6-4.6-34.5c15.2-20.3,58.6-17,70.5,5.3C1188.4,292.2,1188.6,293.1,1189.3,295z"/>
			<path class="st3" d="M606.4,344.6c-8.9,20.7-31.6,31-55.4,25.9c-23.1-5-38.2-24.7-37.6-49.3c0.6-24.6,16.1-43.6,39-47.5
				c24.3-4.1,45.5,5.9,53.1,26c-6.6,2.8-13.2,5.7-20,8.2c-1.1,0.4-3.8-1-4.6-2.3c-7.5-11.8-25.3-12-34.7-2.9
				c-10.1,9.9-10.1,29.8,0.3,39.4c10.2,9.5,25.7,8.2,34.7-3.3c2.4-3.1,4.3-3.7,7.8-2C594.6,339.5,600.3,341.9,606.4,344.6z"/>
			<path class="st4" d="M605.1,217c-4.6,9-10.4,15.8-18.5,20c-17.6,9.1-35.5,9-52.3-1.5c-17-10.7-23.2-27.4-21.3-46.8
				c1.9-19.3,11.9-33.4,30.4-40.5c21.5-8.2,45.7-1.1,57.4,16.4c3.1,4.7,3,7.6-2.7,9.4c-1.5,0.5-3,1.1-4.3,1.8
				c-6.7,3.7-12.1,4.9-18.1-2.6c-5.6-7.1-14.7-6.8-23-3.8c-11.9,4.3-18.1,18.2-14.8,32.3c2.8,12.1,13.1,19.7,25.7,18.9
				c7.1-0.5,12.9-3.6,16.9-9.5c2-3,4-3.5,7.2-1.9C593.2,211.8,598.9,214.2,605.1,217z"/>
			<path class="st3" d="M966.8,287.2c7.6-9,16.2-14.6,27.5-14.3c2.9,0.1,5.7,0.7,8.6,1.3c3.6,0.8,5.3,2.8,3.9,6.8
				c-2,5.6-3.5,11.4-5.4,17.5c-1.8-0.3-3.1-0.5-4.3-0.8c-16.6-3.7-28.9,5.4-29.5,22.6c-0.5,13.8-0.3,27.7-0.1,41.5
				c0.1,5-1.3,7.1-6.8,7.1c-19.2,0.2-19.2,0.4-19.2-18.8c0-22.3,0.2-44.6-0.1-66.9c-0.1-6.3,2.1-8.6,8.1-7.7c0.9,0.1,1.8,0,2.7,0
				C964.3,275.5,964.3,275.5,966.8,287.2z"/>
			<path class="st4" d="M646.6,194.1c0,13.2-0.1,26.3,0.1,39.5c0.1,4.9-1.8,6.5-6.7,6.6c-17.7,0.3-17.7,0.4-17.7-17.4
				c0-22.5,0.2-45-0.1-67.6c-0.1-5.5,1.6-7.3,7.2-7.2c17.2,0.1,17.2-0.1,17.2,17.3C646.6,174.9,646.6,184.5,646.6,194.1z"/>
			<path class="st4" d="M650.1,119.7c0,8.6-7.1,15.7-15.7,15.6c-8.8-0.1-15.6-7-15.7-15.8c-0.1-8.5,7.1-15.7,15.8-15.7
				C643.1,103.9,650.1,111.1,650.1,119.7z"/>
		</g>
	</g>
</g>
<g id="White_alt" class="st0">
	<g class="st1">
		<g>
			<g>
				<path class="st5" d="M-743.7-69.7L-743.7-69.7c-5.4-0.2-10.5,1.6-14.4,5.5L-950,133.5c-8.5,8.8-7.6,24.6,2,35.3
					c0,0,4,5.4,14,15.5c10,10.2,16.3,6.8,25.9,0c9.7-6.8,150.5-105.7,150.5-105.7c11.4-7.5,17.3-7.3,28.8,0
					c0,0,140.8,98.9,150.4,105.7c9.7,6.8,15.9,10.2,25.9,0c10-10.2,14-15.5,14-15.5c9.6-10.7,10.5-26.6,2-35.3L-728.2-64.1
					c-3.9-4-9-5.7-14.4-5.5l0,0c-0.2-0.1-0.3,0-0.5,0C-743.3-69.7-743.5-69.7-743.7-69.7z"/>
				<path id="XMLID_8_" class="st5" d="M-754.1,140.3l-159.6,111.5c-7.1,7.3-6.4,20.5,1.7,29.4c0,0,3.4,4.5,11.6,12.9
					c1.8,1.7,7.7,6.5,16.4,4.5c32.7-11.1,103.3-42.7,125.7-51.7c6.7-2.2,10.6-3.7,15.1-3.7c4.5,0,8.4,1.5,15.1,3.7
					c22.4,9,93.1,40.6,125.7,51.7c8.6,2.1,14.6-2.7,16.3-4.5c8.3-8.5,11.6-12.9,11.6-12.9c8-8.9,8.8-22,1.7-29.4l-159.5-111.5
					C-740.5,134.8-745.6,134.6-754.1,140.3z"/>
			</g>
		</g>
		<g>
			<g>
				<g>
					<g>
						<path class="st2" d="M-1330.5,550.7h-35.6c-13.4,0-23.1-2.6-29.1-7.8c-6-5.2-9-13.7-9-25.4v-86.2h23.3v86.2
							c0,4.7,1.1,7.9,3.2,9.7c2.1,1.8,6,2.7,11.6,2.7h35.6V550.7z"/>
						<path class="st2" d="M-1233.2,550.7h-42.3c-13.4,0-22.8-2.3-28.3-7c-5.4-4.6-8.1-12.8-8.1-24.6v-87.9h78.7v20.8h-55.3v28h38.7
							l-1.7,20.8h-37.1v16.6c0,4.7,1.1,7.9,3.2,9.7c2.1,1.8,6,2.7,11.6,2.7h40.6V550.7z"/>
						<path class="st2" d="M-1119.8,550.7h-24.3l-6.7-20.6h-40.1l-6.5,20.6h-24.3l38.2-109.3c1.7-3.8,3.6-6.4,5.6-7.9
							c2.1-1.5,4.6-2.2,7.6-2.2c3,0,5.5,0.7,7.3,2c1.8,1.3,3.5,4,4.9,8L-1119.8,550.7z M-1156.2,510.4l-14.1-47.3l-14.8,47.3
							H-1156.2z"/>
						<path class="st2" d="M-1010.3,431.3v107.3c0,3.7-1.1,6.8-3.4,9.5c-2.2,2.6-4.9,3.9-7.9,3.9c-7.7,0-14-4.5-19-13.4l-41.3-64.6
							v76.6h-23.3V431.3h22.5l49,78.2v-78.2H-1010.3z"/>
					</g>
				</g>
			</g>
			<g>
				<path class="st5" d="M-894.9,480.1l-21.2,44.6c-3.1,6-6.9,8.9-11.5,8.9c-4.6,0-8.4-3.1-11.5-9.4l-21.5-44.2v70.3h-23V432.6h22.7
					l33.2,68l33.1-68h22.7v117.7h-23V480.1z"/>
				<path class="st5" d="M-758.5,550.4h-24l-6.6-20.3h-39.5l-6.4,20.3h-24l37.7-107.8c1.7-3.7,3.5-6.3,5.5-7.8
					c2-1.4,4.5-2.2,7.5-2.2s5.4,0.7,7.2,2s3.4,4,4.9,7.9L-758.5,550.4z M-794.4,510.7l-13.9-46.6l-14.6,46.6H-794.4z"/>
				<path class="st5" d="M-653.2,550.4h-26.6l-23-43.7h-16.5v43.7h-23v-92.4c0-8.8,2-15.2,6.1-19.3c4.1-4,10.9-6,20.5-6h19.5
					c11.7,0,21,3.6,27.9,10.7c6.9,7.1,10.3,16.1,10.3,27c0,7.9-2.1,14.8-6.2,20.6c-4.1,5.8-9.2,9.8-15.3,12L-653.2,550.4z
					 M-685.6,482.5c3.1-3.4,4.7-7.5,4.7-12.6c0-5-1.5-9.1-4.5-12.2c-3-3.1-7.1-4.6-12.2-4.6H-709c-6.8,0-10.3,3.5-10.3,10.4v24h21.7
					C-692.8,487.5-688.8,485.8-685.6,482.5z"/>
				<path class="st5" d="M-581.1,488l40.5,62.3h-26.8l-27.8-44.5l-16,21.5v23h-23V432.6h23v65.8l44.5-65.8h23.1L-581.1,488z"/>
				<path class="st5" d="M-446.6,550.4h-41.7c-13.2,0-22.5-2.3-27.9-6.9c-5.3-4.6-8-12.7-8-24.2v-86.6h77.5v20.5h-54.6v27.6h38.2
					l-1.7,20.5h-36.5v16.4c0,4.6,1,7.8,3.1,9.6c2.1,1.8,5.9,2.6,11.4,2.6h40V550.4z"/>
				<path class="st5" d="M-347.6,453.1h-31.6v97.2h-23v-97.2h-31.4v-20.5h86V453.1z"/>
				<path class="st5" d="M-306.8,550.4h-23V432.6h23V550.4z"/>
				<path class="st5" d="M-187.5,432.6v105.8c0,3.6-1.1,6.8-3.3,9.3c-2.2,2.6-4.8,3.9-7.8,3.9c-7.6,0-13.8-4.4-18.7-13.2l-40.7-63.7
					v75.6h-23V432.6h22.2l48.3,77.1v-77.1H-187.5z"/>
				<path class="st5" d="M-171,495v-14.6c0-15.3,4-27.3,12.1-35.9c8-8.6,19.2-12.9,33.4-12.9s25.6,4.3,34.2,12.9
					c6.1,6.1,9.1,15.2,9.1,27.3h-21.5c0-13.1-7-19.7-21-19.7c-4.2,0-7.7,0.8-10.7,2.4c-2.9,1.6-5.1,3.4-6.5,5.5
					c-1.4,2.1-2.5,5.2-3.3,9.3c-0.8,4.1-1.2,7.5-1.3,10.3c-0.1,2.8-0.2,6.4-0.2,11.1s0,7.7,0.1,9.3c0.1,1.6,0.2,4.2,0.5,7.8
					c0.3,3.6,0.7,6.1,1.3,7.7c0.6,1.5,1.5,3.5,2.6,6c1.2,2.4,2.6,4.1,4.4,5.1c4.5,2.9,9.6,4.3,15.4,4.3c9.6,0,16.4-4.1,20.3-12.2
					v-7.9h-14.2v-19.2h33.9V527c-3.4,8-8.8,14.1-16.2,18.2c-7.4,4.1-15.8,6.1-25.1,6.1c-16.6,0-28.7-4.7-36.1-14
					C-167.3,528.1-171,513.9-171,495z"/>
			</g>
		</g>
	</g>
</g>
<g id="White_Alt">
</g>
<g id="Logo">
</g>
<g id="White">
</g>
</svg>
